<?xml version="1.0" encoding="UTF-8" standalone="no"?>
<!-- Created with Inkscape (http://www.inkscape.org/) -->

<svg
   width="197.90833mm"
   height="162.88977mm"
   viewBox="0 0 197.90833 162.88977"
   version="1.1"
   id="svg5"
   xmlns="http://www.w3.org/2000/svg"
   xmlns:svg="http://www.w3.org/2000/svg">
  <defs
     id="defs2" />
  <g
     id="layer1"
     transform="translate(0.397459,-12.362743)">
    <g
       id="g1269"
       transform="translate(32.192437,-40.282903)"
       style="fill:#000000;fill-opacity:1">
      <path
         style="fill:#000000;fill-opacity:1;stroke-width:0.264583"
         d="m 2.3013522,128.87965 c -0.3291072,-0.41964 -0.3197489,-0.429 0.099896,-0.0999 0.4407297,0.34564 0.5808874,0.56292 0.3631247,0.56292 -0.054941,0 -0.2633,-0.20836 -0.4630208,-0.46303 z m -8.8864091,-21.10052 c 0.00212,-0.7276 0.053372,-0.99385 0.1141862,-0.59167 0.060817,0.40218 0.05919,0.9975 -0.0036,1.32292 -0.062801,0.32542 -0.1125591,-0.004 -0.1105747,-0.73125 z"
         id="path1283" />
      <path
         style="fill:#000000;fill-opacity:1;stroke-width:0.264583"
         d="m 107.32507,163.29318 c 0.191,-0.0764 0.4192,-0.067 0.50712,0.0209 0.0879,0.0879 -0.0683,0.15045 -0.34727,0.13896 -0.30822,-0.0127 -0.37091,-0.0754 -0.15985,-0.15985 z M 81.232512,107.77913 c 0.0054,-0.43656 0.06469,-0.58312 0.131774,-0.32569 0.06708,0.25743 0.06267,0.61462 -0.0098,0.79375 -0.07248,0.17913 -0.127362,-0.0315 -0.12197,-0.46806 z"
         id="path1281" />
      <path
         style="fill:#000000;fill-opacity:1;stroke-width:0.264583"
         d="m 20.260622,163.2872 c 0.327422,-0.0631 0.863204,-0.0631 1.190625,0 0.327422,0.0631 0.05953,0.11466 -0.595312,0.11466 -0.654844,0 -0.922734,-0.0516 -0.595313,-0.11466 z m 4.497917,0.0115 c 0.181901,-0.0734 0.479557,-0.0734 0.661458,0 0.181901,0.0734 0.03307,0.13345 -0.330729,0.13345 -0.363802,0 -0.51263,-0.0601 -0.330729,-0.13345 z m 84.410951,-0.0201 c 0.76886,-0.0536 1.95949,-0.0531 2.64583,10e-4 0.68635,0.0543 0.0573,0.0982 -1.39793,0.0975 -1.45521,-7.9e-4 -2.01677,-0.0451 -1.2479,-0.0987 z M 58.823641,148.65726 c 0.26339,-0.29104 0.538422,-0.52917 0.611183,-0.52917 0.07276,0 -0.08321,0.23813 -0.346599,0.52917 -0.26339,0.29104 -0.538422,0.52916 -0.611182,0.52916 -0.07276,0 0.08321,-0.23812 0.346598,-0.52916 z M 21.057457,78.620132 c 0.329118,-0.06329 0.805368,-0.06088 1.058334,0.0053 0.252965,0.06622 -0.01633,0.118005 -0.598398,0.115068 -0.582083,-0.0029 -0.789053,-0.05712 -0.459936,-0.120407 z m 89.690663,5.29e-4 c 0.32742,-0.06307 0.8632,-0.06307 1.19062,0 0.32742,0.06306 0.0595,0.114662 -0.59531,0.114662 -0.65484,0 -0.92273,-0.0516 -0.59531,-0.114662 z"
         id="path1279" />
      <path
         style="fill:#000000;fill-opacity:1;stroke-width:0.264583"
         d="m 22.509581,163.28442 c 0.400182,-0.0606 1.055026,-0.0606 1.455208,0 0.400182,0.0606 0.07276,0.11022 -0.727604,0.11022 -0.800365,0 -1.127787,-0.0496 -0.727604,-0.11022 z m 58.69224,-53.93983 c 0.0127,-0.30823 0.07539,-0.37092 0.15985,-0.15986 0.07643,0.191 0.06703,0.4192 -0.02088,0.50712 -0.08792,0.0879 -0.150453,-0.0683 -0.138965,-0.34726 z m 57.984239,-1.96233 c 0,-0.50932 0.0545,-0.71768 0.121,-0.46302 0.0666,0.25466 0.0666,0.67138 0,0.92604 -0.0666,0.25466 -0.121,0.0463 -0.121,-0.46302 z m -171.755067,-5.97517 c 0.0127,-0.30823 0.07539,-0.37092 0.159851,-0.15986 0.07643,0.191 0.06703,0.4192 -0.02088,0.50712 -0.08792,0.0879 -0.150453,-0.0683 -0.138964,-0.34726 z M 19.604199,78.623907 c 0.257432,-0.06708 0.614619,-0.06267 0.79375,0.0098 0.179131,0.07248 -0.03149,0.127362 -0.468056,0.12197 -0.436562,-0.0054 -0.583125,-0.06469 -0.325694,-0.131773 z m 93.012541,0.0026 c 0.19099,-0.07643 0.4192,-0.06703 0.50712,0.02088 0.0879,0.08792 -0.0684,0.150453 -0.34727,0.138964 -0.30823,-0.0127 -0.37092,-0.07539 -0.15985,-0.15985 z M 71.126766,70.240699 c 0,-0.05494 0.208359,-0.2633 0.463021,-0.463021 0.419645,-0.329107 0.429003,-0.319749 0.0999,0.0999 -0.345644,0.44073 -0.562917,0.580887 -0.562917,0.363125 z"
         id="path1277" />
      <path
         style="fill:#000000;fill-opacity:1;stroke-width:0.264583"
         d="m -25.644584,215.3987 c 3.019558,-0.0425 7.960651,-0.0425 10.980208,0 3.019557,0.0425 0.549011,0.0772 -5.490104,0.0772 -6.039114,0 -8.509661,-0.0347 -5.490104,-0.0772 z m 16.9333329,0.0157 c 0.2546614,-0.0665 0.6713801,-0.0665 0.9260416,0 0.2546614,0.0666 0.046302,0.12101 -0.4630208,0.12101 -0.5093229,0 -0.7176823,-0.0545 -0.4630208,-0.12101 z M 145.95599,215.3985 c 3.53894,-0.0417 9.25394,-0.0417 12.7,9e-5 3.44606,0.0418 0.55056,0.0759 -6.43444,0.0758 -6.985,-5e-5 -9.8045,-0.0342 -6.26556,-0.0759 z m -15.19082,-128.719955 -0.50403,-0.595313 0.59531,0.504029 c 0.32742,0.277214 0.59531,0.545105 0.59531,0.595312 0,0.211733 -0.21293,0.05542 -0.68659,-0.504028 z M 1.8059358,86.644865 c 0,-0.05494 0.2083594,-0.263301 0.4630209,-0.463021 0.419645,-0.329107 0.4290033,-0.319749 0.099896,0.0999 -0.3456437,0.44073 -0.5629169,0.580887 -0.5629169,0.363125 z"
         id="path1275" />
      <path
         style="fill:#000000;fill-opacity:1;stroke-width:0.264583"
         d="m 112.35215,52.697356 c 0.191,-0.07643 0.4192,-0.06703 0.50712,0.02088 0.0879,0.08792 -0.0683,0.150452 -0.34726,0.138964 -0.30823,-0.0127 -0.37092,-0.07539 -0.15986,-0.15985 z"
         id="path1273" />
      <path
         style="fill:#000000;fill-opacity:1;stroke-width:0.264583"
         d="m -32.583892,159.43903 c 0.0035,-32.76524 0.109931,-57.2295 0.257169,-59.12257 1.013984,-13.037278 7.374657,-25.352547 17.702405,-34.274664 13.3756553,-11.555195 32.078754,-15.966566 49.093808,-11.57942 5.507082,1.419942 12.334091,4.358629 16.687831,7.183283 4.100052,2.660063 9.650346,7.742505 13.324308,12.201157 0.929081,1.127516 1.774721,2.050029 1.879197,2.050029 0.104479,0 0.731626,-0.68461 1.393656,-1.521355 3.098826,-3.916619 7.786396,-8.5507 11.177492,-11.049946 5.973108,-4.402198 14.137359,-7.942548 21.976036,-9.529699 14.47876,-2.93162 31.26124,0.728578 42.89645,9.355555 12.51923,9.282446 20.13427,22.589539 21.24281,37.12127 0.17136,2.24639 0.27011,23.89134 0.27051,59.29865 l 6.5e-4,55.76093 h -12.96458 -12.96459 v -30.43243 -30.43243 l -1.38906,0.82205 c -2.75399,1.62981 -8.33179,4.19728 -11.44323,5.26732 -6.38583,2.19613 -10.42112,2.77313 -18.02783,2.57776 -6.35541,-0.16322 -8.628954,-0.55395 -14.446998,-2.48283 -9.672547,-3.20678 -17.788964,-8.58415 -23.9104,-15.84135 -1.439267,-1.70631 -2.914507,-3.44927 -3.278309,-3.87324 l -0.661459,-0.77085 -2.562092,3.13249 c -7.002277,8.56118 -14.621491,13.8308 -25.111148,17.36744 -5.758862,1.94162 -7.977237,2.31822 -14.542994,2.46885 -7.834241,0.17974 -12.04069,-0.45435 -18.2410544,-2.74971 -2.6547523,-0.98278 -8.9720045,-3.97674 -11.3109369,-5.36064 l -1.3890624,-0.82188 v 30.56473 30.56472 H -19.757605 -32.589896 l 0.006,-55.89322 z m 59.922118,-23.45361 c 5.550561,-1.15163 9.904822,-3.52078 14.349102,-7.80736 5.154465,-4.97156 7.594576,-8.92673 9.2387,-14.97497 0.707972,-2.6044 0.643236,-8.68945 -0.122029,-11.47079 C 48.585487,93.669131 41.561133,85.252622 33.995098,81.592051 18.760692,74.221389 1.7113791,80.88959 -4.5477283,96.666635 -9.3696403,108.82101 -5.4848057,123.21536 4.68406,130.87286 c 3.447174,2.59584 7.441911,4.42312 11.409375,5.21889 2.666291,0.5348 8.41679,0.48042 11.244791,-0.10633 z m 90.752084,-0.28519 c 7.86176,-2.13559 14.46479,-7.67706 18.13696,-15.2211 6.51891,-13.39229 2.35913,-29.258347 -9.80855,-37.411395 -7.82493,-5.243163 -18.33826,-5.925806 -27.146271,-1.762649 -3.248472,1.535409 -5.333667,2.994742 -8.133934,5.692566 -13.021635,12.545261 -13.236109,28.855718 -0.539568,41.033798 4.435875,4.25474 9.044014,6.75668 14.791363,8.03082 2.77127,0.61437 9.84822,0.41262 12.7,-0.36204 z"
         id="path1271" />
    </g>
  </g>
</svg>
